<?xml version="1.0" standalone="no"?>
<!DOCTYPE svg PUBLIC "-//W3C//DTD SVG 20010904//EN"
 "http://www.w3.org/TR/2001/REC-SVG-20010904/DTD/svg10.dtd">
<svg version="1.0" xmlns="http://www.w3.org/2000/svg"
 width="260.000000pt" height="260.000000pt" viewBox="0 0 260.000000 260.000000"
 preserveAspectRatio="xMidYMid meet">
<metadata>
Created by potrace 1.11, written by Peter Selinger 2001-2013
</metadata>
<g transform="translate(0.000000,260.000000) scale(0.100000,-0.100000)"
fill="#000000" stroke="none">
<path d="M1149 2008 c-35 -62 -66 -117 -69 -123 -19 -41 -39 -53 -115 -70 -44
-10 -87 -18 -95 -20 -14 -2 -32 -53 -44 -124 -2 -15 -11 -57 -20 -94 -9 -38
-16 -70 -16 -72 0 -2 31 -5 68 -7 l69 -3 -23 -100 c-12 -55 -24 -113 -27 -130
-3 -16 -8 -41 -11 -55 -3 -14 -8 -36 -11 -50 -6 -28 -8 -36 -30 -139 -36 -169
-32 -332 10 -399 69 -107 171 -145 373 -138 131 5 147 8 250 38 56 16 73 26
77 42 36 175 47 226 54 254 11 37 24 34 -139 37 -63 1 -123 3 -132 4 -28 2
-48 30 -48 68 0 29 52 297 100 521 l12 52 173 0 c189 0 178 -3 189 57 2 10 16
73 30 141 14 67 26 129 26 137 0 13 -26 15 -170 15 -137 0 -170 3 -170 14 0 7
11 63 25 124 14 61 25 116 25 121 0 7 -51 11 -148 11 l-149 0 -64 -112z"/>
</g>
</svg>
