<?xml version="1.0" standalone="no"?>
<!DOCTYPE svg PUBLIC "-//W3C//DTD SVG 20010904//EN"
 "http://www.w3.org/TR/2001/REC-SVG-20010904/DTD/svg10.dtd">
<svg version="1.0" xmlns="http://www.w3.org/2000/svg"
 width="256.000000pt" height="256.000000pt" viewBox="0 0 256.000000 256.000000"
 preserveAspectRatio="xMidYMid meet">
<metadata>
Created by potrace 1.11, written by Peter Selinger 2001-2013
</metadata>
<g transform="translate(0.000000,256.000000) scale(0.100000,-0.100000)"
fill="#000000" stroke="none">
<path d="M1190 2074 c0 -8 -3 -14 -7 -14 -5 0 -13 -10 -19 -23 -21 -43 -77
-142 -96 -169 -10 -14 -18 -31 -18 -36 0 -6 -5 -14 -12 -18 -13 -9 -109 -33
-153 -40 -39 -6 -52 -21 -58 -69 -3 -22 -8 -47 -11 -55 -3 -8 -8 -28 -11 -45
-3 -16 -8 -41 -12 -55 -3 -14 -6 -36 -7 -50 -1 -24 1 -25 62 -24 68 0 67 1 51
-66 -15 -65 -19 -81 -25 -120 -3 -19 -8 -38 -10 -41 -2 -3 -6 -21 -9 -40 -3
-19 -12 -62 -20 -97 -8 -34 -17 -74 -20 -90 -2 -15 -9 -49 -14 -77 -5 -27 -7
-53 -5 -57 2 -3 1 -9 -3 -11 -8 -5 -7 -155 0 -187 2 -8 11 -32 20 -54 9 -21
17 -40 17 -42 0 -10 58 -59 91 -76 65 -33 144 -46 263 -43 139 4 324 45 327
73 0 4 2 14 4 22 2 8 6 29 9 45 3 17 8 41 11 55 3 14 8 35 11 48 2 12 7 34 10
50 15 73 14 76 -41 73 -65 -3 -63 -3 -112 2 -23 2 -47 1 -53 -3 -11 -7 -62 7
-87 23 -22 14 -15 80 32 300 24 117 46 223 49 237 2 14 7 37 11 51 l6 25 172
0 c128 0 172 3 173 12 1 7 3 14 4 17 3 6 3 7 14 60 5 22 10 50 11 62 2 11 6
31 10 43 4 12 8 32 10 43 5 34 15 81 20 95 5 13 8 13 -195 14 -74 0 -138 2
-142 4 -3 2 -2 19 3 37 5 17 12 48 15 67 3 19 8 38 10 42 3 4 7 24 10 45 2 21
7 45 9 54 5 14 -11 16 -145 17 -122 0 -150 -3 -150 -14z"/>
</g>
</svg>
