<?xml version="1.0" encoding="UTF-8"?>
<svg width="28px" height="30px" viewBox="0 0 28 30" version="1.1" xmlns="http://www.w3.org/2000/svg" xmlns:xlink="http://www.w3.org/1999/xlink">
    <g id="calendar" stroke="none" stroke-width="1" fill="none" fill-rule="evenodd">
        <g id="icon" fill="#000000" fill-rule="nonzero">
            <path d="M20.035512,0.115226364 C20.5627075,0.115226364 20.9900575,0.542592273 20.9900575,1.06977182 L20.9900575,4.73880591 C22.0969261,5.13602727 22.8991484,6.197485 22.8991484,7.43340818 C22.8991484,9.00365136 21.6057393,10.2970286 20.035512,10.2970286 C18.4652847,10.2970286 17.1718756,9.00365136 17.1718756,7.43340818 C17.1718756,6.197485 17.9741011,5.13602727 19.0809665,4.73880591 L19.0809665,1.06977182 C19.0809665,0.542592273 19.5083484,0.115226364 20.035512,0.115226364 Z M7.94460291,0.115226364 C8.47179836,0.115226364 8.89914836,0.542592273 8.89914836,1.06977182 L8.89914836,4.73880591 C10.006017,5.13602727 10.8082393,6.197485 10.8082393,7.43340818 C10.8082393,9.00365136 9.51483018,10.2970286 7.94460291,10.2970286 C6.37437564,10.2970286 5.08096655,9.00365136 5.08096655,7.43340818 C5.08096655,6.197485 5.88318882,5.13602727 6.99005745,4.73880591 L6.99005745,1.06977182 C6.99005745,0.542592273 7.41743927,0.115226364 7.94460291,0.115226364 Z M24.4900575,2.02431727 C26.4178575,2.02431727 27.9999994,3.60647955 27.9999994,5.53426045 L27.9999994,25.8780136 C27.9999994,27.8058136 26.4178575,29.3879727 24.4900575,29.3879727 L3.50994382,29.3879727 C1.58217564,29.3879727 6.36363635e-07,27.8058136 6.36363635e-07,25.8780136 L6.36363635e-07,5.53425727 C6.36363635e-07,3.60647636 1.58217564,2.02431409 3.50994382,2.02431409 L5.40909155,2.02431409 C5.91337791,2.01718682 6.37358018,2.47450955 6.37358018,2.97885955 C6.37358018,3.48320955 5.91337791,3.94053545 5.40909155,3.933405 L3.50994382,3.933405 C2.60859836,3.933405 1.90909155,4.63288636 1.90909155,5.53425727 L1.90909155,10.9333891 L26.0909097,10.9333891 L26.0909097,5.53425727 C26.0909097,4.63288636 25.3914347,3.933405 24.4900575,3.933405 L22.5909097,3.933405 C22.0866234,3.94053227 21.6264211,3.48320955 21.6264211,2.97885955 C21.6264211,2.47450955 22.0866234,2.01718364 22.5909097,2.02431409 L24.4900575,2.02431727 Z M17.5000006,2.02431727 C18.0271961,2.02431727 18.4545461,2.45166727 18.4545461,2.97886273 C18.4545461,3.50602636 18.0271961,3.93340818 17.5000006,3.93340818 L10.5000006,3.93340818 C9.97280518,3.93340818 9.54545518,3.50602636 9.54545518,2.97886273 C9.54545518,2.45166727 9.97280518,2.02431727 10.5000006,2.02431727 L17.5000006,2.02431727 Z M20.035512,6.47886273 C19.4970211,6.47886273 19.0809665,6.89492045 19.0809665,7.43340818 C19.0809665,7.97189591 19.4970211,8.38795364 20.035512,8.38795364 C20.5740029,8.38795364 20.9900575,7.97189591 20.9900575,7.43340818 C20.9900575,6.89492045 20.5740029,6.47886273 20.035512,6.47886273 Z M7.94460291,6.47886273 C7.406112,6.47886273 6.99005745,6.89492045 6.99005745,7.43340818 C6.99005745,7.97189591 7.406112,8.38795364 7.94460291,8.38795364 C8.48309382,8.38795364 8.89914836,7.97189591 8.89914836,7.43340818 C8.89914836,6.89492045 8.48309382,6.47886273 7.94460291,6.47886273 Z M26.0909097,12.8424959 L1.90909155,12.8424959 L1.90909155,25.8780136 C1.90909155,26.7793909 2.60859836,27.4788818 3.50994382,27.4788818 L24.4900575,27.4788818 C25.3914347,27.4788818 26.0909097,26.7793909 26.0909097,25.8780136 L26.0909097,12.8424959 Z" id="Shape"></path>
        </g>
    </g>
</svg>