<?xml version="1.0" encoding="UTF-8"?>
<svg width="28px" height="28px" viewBox="0 0 28 28" version="1.1" xmlns="http://www.w3.org/2000/svg" xmlns:xlink="http://www.w3.org/1999/xlink">
    <!-- Generator: Sketch 52.6 (67491) - http://www.bohemiancoding.com/sketch -->
    <title>today</title>
    <desc>Created with Sketch.</desc>
    <g id="Page-1" stroke="none" stroke-width="1" fill="none" fill-rule="evenodd">
        <g id="today" fill="#000000">
            <path d="M14,28 C6.2680135,28 1.21312174e-15,21.7319865 0,14 C-6.0656087e-16,6.2680135 6.2680135,1.81968261e-15 14,0 C21.7319865,-1.21312175e-15 28,6.2680135 28,14 C28,17.7130309 26.5250042,21.2739856 23.8994949,23.8994949 C21.2739856,26.5250042 17.7130309,28 14,28 Z M14,2.04878049 C7.39952372,2.04878049 2.04878049,7.39952372 2.04878049,14 C2.04878049,20.6004763 7.39952372,25.9512195 14,25.9512195 C20.6004763,25.9512195 25.9512195,20.6004763 25.9512195,14 C25.9512195,7.39952372 20.6004763,2.04878049 14,2.04878049 Z" id="Shape" fill-rule="nonzero"></path>
            <path d="M12.6156759,13.9974448 L16.6648534,18.0466222 C17.1117155,18.4934844 17.1117155,19.2179912 16.6648534,19.6648534 C16.2179912,20.1117155 15.4934844,20.1117155 15.0466222,19.6648534 L10.2381837,14.8564148 C10.2206917,14.8409275 10.2035602,14.824813 10.1868184,14.8080712 C9.73995623,14.361209 9.73995623,13.6367022 10.1868184,13.1898401 L15.0415118,8.33514664 C15.488374,7.88828445 16.2128808,7.88828445 16.659743,8.33514664 C17.1066052,8.78200883 17.1066052,9.50651559 16.659743,9.95337778 L12.6156759,13.9974448 Z" id="Path"></path>
        </g>
    </g>
</svg>