<?xml version="1.0" encoding="UTF-8"?>
<svg width="28px" height="28px" viewBox="0 0 28 28" version="1.1" xmlns="http://www.w3.org/2000/svg" xmlns:xlink="http://www.w3.org/1999/xlink">
    <g id="report" stroke="none" stroke-width="1" fill="none" fill-rule="evenodd">
        <g id="icon" fill="#000000" fill-rule="nonzero">
            <path d="M14,28 C6.28,28 0,21.718 0,14 C0,6.28 6.28,0 14,0 C21.718,0 28,6.28 28,14 C28,21.718 21.718,28 14,28 Z M14,2 C7.382,2 2,7.382 2,14 C2,20.618 7.382,26 14,26 C20.618,26 26,20.618 26,14 C26,7.382 20.618,2 14,2 Z" id="Shape"></path>
            <path d="M14,24 C8.9,24 4.628,20.178 4.066,15.112 C4.034,14.828 4.126,14.546 4.316,14.334 C4.504,14.122 4.776,14 5.06,14 L14,14 L14,5.06 C14,4.776 14.122,4.504 14.334,4.314 C14.544,4.124 14.832,4.042 15.112,4.064 C20.178,4.628 24,8.9 24,14 C24,19.514 19.514,24 14,24 Z M6.256,16 C7.15,19.488 10.302,22 14,22 C18.412,22 22,18.412 22,14 C22,10.302 19.488,7.15 16,6.256 L16,15 C16,15.552 15.552,16 15,16 L6.256,16 Z" id="Shape"></path>
        </g>
    </g>
</svg>