<?xml version="1.0" encoding="UTF-8"?>
<svg width="28px" height="28px" viewBox="0 0 28 28" version="1.1" xmlns="http://www.w3.org/2000/svg" xmlns:xlink="http://www.w3.org/1999/xlink">
    <g id="settings" stroke="none" stroke-width="1" fill="none" fill-rule="evenodd">
        <g id="icon" fill="#000000" fill-rule="nonzero">
            <path d="M15.392,28 L12.606,28 C11.542,28 10.678,27.134 10.678,26.072 L10.678,23.642 C10.278,23.566 9.872,23.394 9.474,23.198 L7.814,24.884 C7.058,25.634 5.836,25.632 5.086,24.886 L3.116,22.914 C2.752,22.548 2.552,22.064 2.552,21.55 C2.552,21.034 2.752,20.55 3.118,20.184 L4.836,18.466 C4.61,18.132 4.44,17.726 4.294,17.304 L1.928,17.322 C0.866,17.322 0,16.458 0,15.394 L0,12.608 C0,11.544 0.866,10.678 1.928,10.678 L4.36,10.678 C4.438,10.278 4.608,9.87 4.802,9.474 L3.114,7.814 C2.364,7.06 2.364,5.836 3.114,5.086 L5.084,3.116 C5.84,2.366 7.064,2.368 7.812,3.116 L9.532,4.836 C9.87,4.608 10.276,4.438 10.7,4.292 L10.68,1.928 C10.68,0.866 11.544,0 12.608,0 L15.394,0 C16.456,0 17.322,0.866 17.322,1.928 L17.322,4.36 C17.722,4.438 18.13,4.608 18.528,4.802 L20.188,3.114 C20.918,2.384 22.186,2.384 22.916,3.114 L24.884,5.082 C25.634,5.838 25.632,7.06 24.886,7.81 L23.164,9.53 C23.392,9.86 23.566,10.274 23.708,10.7 L26.072,10.674 C26.588,10.674 27.072,10.876 27.436,11.24 C27.8,11.61 28,12.096 27.998,12.612 L27.998,15.394 C27.998,16.456 27.132,17.322 26.07,17.322 L23.64,17.322 C23.564,17.72 23.39,18.13 23.194,18.528 L24.882,20.188 C25.632,20.942 25.632,22.164 24.882,22.914 L22.912,24.884 C22.158,25.634 20.936,25.634 20.186,24.884 L18.466,23.164 C18.136,23.392 17.722,23.564 17.298,23.708 L17.322,26.072 C17.32,27.134 16.456,28 15.392,28 Z M9.472,21.194 C9.774,21.194 10.08,21.264 10.364,21.408 C10.674,21.558 11,21.7 11.342,21.814 C12.144,22.09 12.678,22.824 12.678,23.642 L12.678,26.072 L15.392,26 L15.32,23.642 C15.32,22.82 15.858,22.086 16.654,21.814 C16.994,21.7 17.322,21.564 17.636,21.406 C18.392,21.028 19.292,21.162 19.878,21.75 L21.598,23.47 L23.468,21.5 L21.748,19.88 C21.162,19.294 21.024,18.39 21.406,17.634 C21.558,17.326 21.698,16.998 21.812,16.658 C22.09,15.858 22.822,15.322 23.64,15.322 L26.07,15.322 L26,12.678 L23.642,12.678 C22.822,12.678 22.088,12.142 21.814,11.344 C21.698,11.002 21.564,10.676 21.406,10.36 C21.03,9.602 21.168,8.702 21.748,8.118 L23.47,6.398 L21.5,4.53 L19.88,6.25 C19.298,6.834 18.398,6.976 17.638,6.596 C17.326,6.44 16.996,6.302 16.656,6.186 C15.858,5.916 15.322,5.18 15.322,4.36 L15.322,1.928 L12.608,2 L12.68,4.358 C12.68,5.18 12.144,5.914 11.346,6.186 C11.004,6.302 10.676,6.44 10.354,6.598 C9.598,6.97 8.702,6.832 8.12,6.25 L6.4,4.53 L4.53,6.5 L6.25,8.12 C6.834,8.704 6.972,9.604 6.594,10.36 C6.442,10.674 6.302,11.002 6.188,11.344 C5.914,12.142 5.18,12.678 4.36,12.678 L1.928,12.678 L2,15.394 L4.358,15.322 C5.182,15.322 5.916,15.86 6.186,16.658 C6.302,16.992 6.44,17.324 6.598,17.644 C6.972,18.402 6.83,19.302 6.248,19.882 L4.53,21.6 L6.5,23.47 L8.12,21.75 C8.486,21.384 8.974,21.194 9.472,21.194 Z" id="Shape"></path>
            <path d="M14,18 C11.794,18 10,16.206 10,14 C10,11.794 11.794,10 14,10 C16.206,10 18,11.794 18,14 C18,16.206 16.206,18 14,18 Z M14,12 C12.898,12 12,12.898 12,14 C12,15.104 12.898,16 14,16 C15.104,16 16,15.104 16,14 C16,12.898 15.104,12 14,12 Z" id="Shape"></path>
        </g>
    </g>
</svg>