<?xml version="1.0" encoding="UTF-8"?>
<svg width="26px" height="29px" viewBox="0 0 26 29" version="1.1" xmlns="http://www.w3.org/2000/svg" xmlns:xlink="http://www.w3.org/1999/xlink">
    <g id="share-ios" stroke="none" stroke-width="1" fill="none" fill-rule="evenodd">
        <g id="icon" fill="#000000">
            <path d="M2.91666667,11 C2.41040565,11 2,11.5116746 2,12.1428571 L2,25.8571429 C2,26.4883254 2.41040565,27 2.91666667,27 L23.0833333,27 C23.5895944,27 24,26.4883254 24,25.8571429 L24,12.1428571 C24,11.5116746 23.5895944,11 23.0833333,11 L2.91666667,11 Z M6,9 L6,11 L20,11 L20,9 L23.2142857,9 C24.7527932,9 26,10.4923842 26,12.3333333 L26,25.6666667 C26,27.5076158 24.7527932,29 23.2142857,29 L2.78571429,29 C1.24720677,29 0,27.5076158 0,25.6666667 L0,12.3333333 C0,10.4923842 1.24720677,9 2.78571429,9 L6,9 Z" id="Rectangle" fill-rule="nonzero"></path>
            <circle id="Oval" cx="6" cy="10" r="1"></circle>
            <circle id="Oval-Copy" cx="21" cy="10" r="1"></circle>
            <path d="M14,3.91421356 L14,19 C14,19.5522847 13.5522847,20 13,20 C12.4477153,20 12,19.5522847 12,19 L12,3.91421356 L9.93933983,5.97487373 C9.54881554,6.36539803 8.91565056,6.36539803 8.52512627,5.97487373 C8.13460197,5.58434944 8.13460197,4.95118446 8.52512627,4.56066017 L12.0606602,1.02512627 C13,0.0857864376 13,0.0857864376 13.9393398,1.02512627 L17.4748737,4.56066017 C17.865398,4.95118446 17.865398,5.58434944 17.4748737,5.97487373 C17.0843494,6.36539803 16.4511845,6.36539803 16.0606602,5.97487373 L14,3.91421356 Z" id="Path"></path>
        </g>
    </g>
</svg>