<?xml version="1.0" encoding="UTF-8"?>
<svg width="24px" height="24px" viewBox="0 0 24 24" version="1.1" xmlns="http://www.w3.org/2000/svg" xmlns:xlink="http://www.w3.org/1999/xlink">
    <g id="share-android" stroke="none" stroke-width="1" fill="none" fill-rule="evenodd">
        <g id="icon" fill="#000000">
            <path d="M4,16 C1.794,16 0,14.206 0,12 C0,9.794 1.794,8 4,8 C6.206,8 8,9.794 8,12 C8,14.206 6.206,16 4,16 Z M4,10 C2.898,10 2,10.898 2,12 C2,13.104 2.898,14 4,14 C5.102,14 6,13.104 6,12 C6,10.898 5.102,10 4,10 Z" id="Shape" fill-rule="nonzero"></path>
            <path d="M20,8 C17.794,8 16,6.206 16,4 C16,1.794 17.794,0 20,0 C22.206,0 24,1.794 24,4 C24,6.206 22.206,8 20,8 Z M20,2 C18.896,2 18,2.898 18,4 C18,5.102 18.896,6 20,6 C21.104,6 22,5.102 22,4 C22,2.898 21.104,2 20,2 Z" id="Shape" fill-rule="nonzero"></path>
            <path d="M20,24 C17.794,24 16,22.206 16,20 C16,17.794 17.794,16 20,16 C22.206,16 24,17.794 24,20 C24,22.206 22.206,24 20,24 Z M20,18 C18.896,18 18,18.896 18,20 C18,21.104 18.896,22 20,22 C21.104,22 22,21.104 22,20 C22,18.896 21.104,18 20,18 Z" id="Shape" fill-rule="nonzero"></path>
            <path d="M17.34,19.66 C17.19,19.66 17.038,19.626 16.894,19.554 L6.214,14.234 C5.72,13.988 5.518,13.388 5.764,12.894 C6.012,12.4 6.614,12.198 7.106,12.446 L17.784,17.766 C18.278,18.012 18.48,18.612 18.234,19.106 C18.06,19.458 17.708,19.66 17.34,19.66 Z" id="Path"></path>
            <path d="M6.662,11.66 C6.294,11.66 5.942,11.456 5.766,11.106 C5.518,10.612 5.72,10.012 6.214,9.764 L16.894,4.444 C17.384,4.198 17.99,4.4 18.234,4.894 C18.48,5.39 18.278,5.988 17.784,6.236 L7.106,11.556 C6.962,11.626 6.81,11.66 6.662,11.66 Z" id="Path"></path>
        </g>
    </g>
</svg>