<?xml version="1.0" encoding="UTF-8"?>
<svg width="28px" height="28px" viewBox="0 0 28 28" version="1.1" xmlns="http://www.w3.org/2000/svg" xmlns:xlink="http://www.w3.org/1999/xlink">
    <g id="Page-1" stroke="none" stroke-width="1" fill="none" fill-rule="evenodd">
        <g id="Group" fill="#000000">
            <path d="M14,28 C6.2680135,28 8.3185491e-15,21.7319865 7.10542736e-15,14 C6.49886649e-15,6.2680135 6.2680135,8.92510997e-15 14,7.10542736e-15 C21.7319865,5.89230561e-15 28,6.2680135 28,14 C28,17.7130309 26.5250042,21.2739856 23.8994949,23.8994949 C21.2739856,26.5250042 17.7130309,28 14,28 Z M14,2.04878049 C7.39952372,2.04878049 2.04878049,7.39952372 2.04878049,14 C2.04878049,20.6004763 7.39952372,25.9512195 14,25.9512195 C20.6004763,25.9512195 25.9512195,20.6004763 25.9512195,14 C25.9512195,7.39952372 20.6004763,2.04878049 14,2.04878049 Z" id="Shape" fill-rule="nonzero"></path>
            <path d="M11.862439,20.402439 C11.609284,20.3999985 11.3659999,20.3039013 11.1795122,20.1326829 L6.82926829,16.1204878 C6.50912454,15.8910473 6.34888098,15.4983746 6.41708917,15.1104537 C6.48529736,14.7225328 6.76987607,14.4080733 7.14908364,14.3015998 C7.52829121,14.1951263 7.93496126,14.3154977 8.19512195,14.6112195 L11.7497561,17.8892683 L18.9853659,9.12390244 C19.3455633,8.68732811 19.9914744,8.62541239 20.4280487,8.9856098 C20.8646231,9.3458072 20.9265388,9.99171832 20.5663415,10.4282927 L12.6512195,20.0302439 C12.4724796,20.2481349 12.2118675,20.3827639 11.9307317,20.402439 L11.862439,20.402439 Z" id="Path"></path>
        </g>
    </g>
</svg>